<svg width="32" height="32" viewBox="0 0 32 32" fill="none" xmlns="http://www.w3.org/2000/svg">
<rect width="32" height="32" rx="16" fill="#2470FF"/>
<rect x="0.444444" y="0.444444" width="31.1111" height="31.1111" rx="15.5556" stroke="white" stroke-opacity="0.05" stroke-width="0.888889"/>
<path opacity="0.8" d="M9.29395 18.9391V23.7044C9.29395 23.9979 9.54221 24.1196 9.61945 24.1472C9.69669 24.1805 9.95599 24.2524 10.1877 24.0366L13.7927 20.5722C14.0997 20.2771 14.396 19.9671 14.6187 19.6043C14.7235 19.4337 14.7669 19.3376 14.7669 19.3376C14.9877 18.8893 14.9877 18.4576 14.7724 18.0258C14.4525 17.3838 13.6359 16.7307 12.4056 16.1108L10.3036 17.2842C9.68015 17.6384 9.29395 18.2639 9.29395 18.9391Z" fill="white"/>
<path d="M7.22119 8.34001V13.3379C7.22119 13.9633 7.6405 14.5168 8.23636 14.6939C10.2666 15.2805 13.8031 16.5425 14.6583 18.3966C14.7685 18.6401 14.8347 18.8782 14.8569 19.1271C15.4252 18.0921 15.6844 16.9022 15.5632 15.6957C15.3975 13.9854 14.4927 12.4302 13.0804 11.4395L8.04325 7.91384C7.95496 7.84741 7.85014 7.81421 7.74532 7.81421C7.65704 7.81421 7.5798 7.83082 7.49705 7.87509C7.33153 7.96918 7.22119 8.14076 7.22119 8.34001Z" fill="white"/>
<path opacity="0.8" d="M22.7022 18.9391V23.7044C22.7022 23.9979 22.454 24.1196 22.3766 24.1472C22.2995 24.1805 22.04 24.2524 21.8084 24.0366L18.1195 20.4916C17.8684 20.2503 17.6286 19.995 17.4395 19.7025C17.2896 19.4709 17.2292 19.3376 17.2292 19.3376C17.0085 18.8893 17.0085 18.4576 17.2236 18.0258C17.5437 17.3838 18.3602 16.7307 19.5904 16.1108L21.6925 17.2842C22.3215 17.6384 22.7022 18.2639 22.7022 18.9391Z" fill="white"/>
<path d="M24.7785 8.33977V13.3376C24.7785 13.9631 24.3591 14.5165 23.7632 14.6936C21.7329 15.2803 18.1966 16.5423 17.3414 18.3964C17.231 18.6399 17.1647 18.8779 17.1428 19.1269C16.5744 18.0919 16.3152 16.902 16.4365 15.6955C16.602 13.9852 17.5068 12.43 18.9193 11.4392L23.9564 7.91359C24.0447 7.84717 24.1495 7.81396 24.2543 7.81396C24.3425 7.81396 24.4199 7.83057 24.5024 7.87485C24.6681 7.96894 24.7785 8.14051 24.7785 8.33977Z" fill="white"/>
</svg>
