<svg width="32" height="32" viewBox="0 0 32 32" fill="none" xmlns="http://www.w3.org/2000/svg">
<rect width="32" height="32" rx="16" fill="#2775CA"/>
<rect x="0.444444" y="0.444444" width="31.1111" height="31.1111" rx="15.5556" stroke="white" stroke-opacity="0.05" stroke-width="0.888889"/>
<path d="M13 5.19994C13 4.82483 12.7129 4.61328 12.3502 4.72528C7.49956 6.27461 4 10.8124 4 16.1626C4 21.5253 7.50044 26.0497 12.3502 27.5999C12.6996 27.7128 13 27.4995 13 27.1253V26.1742C13 25.9253 12.8133 25.6373 12.5751 25.5502C8.73778 24.1502 6 20.4746 6 16.1626C6 11.8622 8.73778 8.17506 12.5751 6.76261C12.8124 6.67461 13 6.3875 13 6.13772V5.19994ZM19.6498 4.75017C19.2996 4.63728 19 4.84972 19 5.22483V6.16261C19 6.41239 19.1867 6.6995 19.4249 6.7875C23.2622 8.1875 26 11.8631 26 16.1742C26 20.4746 23.2498 24.1626 19.4249 25.5626C19.1627 25.6497 19 25.9128 19 26.1875V27.1253C19 27.5004 19.2871 27.7119 19.6498 27.5999C24.4996 26.0497 28 21.5253 28 16.1626C28.0032 13.6194 27.1952 11.1414 25.6935 9.08881C24.1918 7.03625 22.0747 5.51698 19.6498 4.75017ZM16.4996 8.16261H15.4996C15.3672 8.16308 15.2404 8.21586 15.1468 8.30944C15.0532 8.40303 15.0005 8.52982 15 8.66217V10.2124C13.0249 10.4879 11.7378 11.8124 11.7378 13.4995C11.7378 15.6871 13.0622 16.5377 15.8622 16.9128C17.7627 17.2248 18.2996 17.6373 18.2996 18.7128C18.2996 19.7875 17.3751 20.5128 16.0871 20.5128C14.3378 20.5128 13.7627 19.7502 13.5502 18.7617C13.5261 18.6497 13.4647 18.5491 13.3761 18.4765C13.2875 18.4038 13.1768 18.3634 13.0622 18.3617H11.9244C11.8568 18.3607 11.7897 18.3745 11.728 18.4022C11.6663 18.43 11.6114 18.471 11.5673 18.5223C11.5232 18.5736 11.4909 18.634 11.4728 18.6992C11.4546 18.7644 11.451 18.8328 11.4622 18.8995C11.7502 20.5751 12.8133 21.7875 15 22.0871V23.6622C15 23.9377 15.2249 24.1626 15.5004 24.1626H16.5004C16.7751 24.1626 17 23.9377 17 23.6622H17.0124V22.0622C19.0747 21.7377 20.4 20.2995 20.4 18.5244C20.4 16.1866 18.9751 15.3999 16.2249 15.0248C14.1876 14.7377 13.8 14.2622 13.8 13.3128C13.8 12.4124 14.4871 11.7751 15.8124 11.7751C17.0124 11.7751 17.6996 12.1999 17.9876 13.1617C18.0498 13.3751 18.2373 13.5253 18.4622 13.5253H19.5129C19.8124 13.5253 20.0373 13.2622 19.9751 12.9742C19.6373 11.4497 18.6124 10.5377 17 10.2497V8.66217C16.9995 8.52967 16.9466 8.40274 16.8528 8.30913C16.7591 8.21552 16.6321 8.16284 16.4996 8.16261Z" fill="white"/>
</svg>
