<svg width="32" height="32" viewBox="0 0 32 32" fill="none" xmlns="http://www.w3.org/2000/svg">
<rect width="32" height="32" rx="16" fill="#50AF95"/>
<rect x="0.444444" y="0.444444" width="31.1111" height="31.1111" rx="15.5556" stroke="white" stroke-opacity="0.05" stroke-width="0.888889"/>
<path fill-rule="evenodd" clip-rule="evenodd" d="M18.0347 16.6918C17.921 16.7003 17.3339 16.7353 16.0241 16.7353C14.9824 16.7353 14.2428 16.7041 13.9833 16.6918C9.95757 16.5147 6.9527 15.8139 6.9527 14.9748C6.9527 14.1358 9.95757 13.4359 13.9833 13.256V15.9938C14.2466 16.0127 15.0004 16.0573 16.0421 16.0573C17.2922 16.0573 17.9182 16.0052 18.0309 15.9947V13.2579C22.0481 13.4369 25.0464 14.1377 25.0464 14.9748C25.0464 15.812 22.0491 16.5128 18.0309 16.6908L18.0347 16.6918ZM18.0347 12.9747V10.5248H23.641V6.78882H8.37701V10.5248H13.9824V12.9738C9.4263 13.1831 6 14.0856 6 15.1671C6 16.2485 9.4263 17.1501 13.9824 17.3603V25.2111H18.0337V17.3575C22.5794 17.1482 26 16.2467 26 15.1661C26 14.0856 22.5822 13.184 18.0337 12.9738L18.0347 12.9747Z" fill="white"/>
</svg>
