<svg width="32" height="32" viewBox="0 0 32 32" fill="none" xmlns="http://www.w3.org/2000/svg">
<rect width="32" height="32" rx="16" fill="#103E36"/>
<rect x="0.444444" y="0.444444" width="31.1111" height="31.1111" rx="15.5556" stroke="white" stroke-opacity="0.05" stroke-width="0.888889"/>
<path d="M15.4449 16.8905V19.4633L6.68115 24.5044V21.3161L12.2609 18.1673V18.1278L6.68115 14.9396V11.7321L15.4449 16.8916V16.8905Z" fill="white"/>
<path d="M15.5123 16.4148L13.284 15.1284L13.3011 5.01855L16.0616 6.61215L15.9987 13.0186L16.0328 13.0378L21.5838 9.79935L24.3614 11.4036L15.5112 16.4138L15.5123 16.4148Z" fill="white"/>
<path d="M15.9047 16.7496L18.133 15.4632L26.8796 20.5331L24.1191 22.1267L18.6023 18.8691L18.5682 18.8893L18.597 25.316L15.8183 26.9203L15.9047 16.7507V16.7496Z" fill="white"/>
</svg>
