<svg width="32" height="32" viewBox="0 0 32 32" fill="none" xmlns="http://www.w3.org/2000/svg">
<rect width="32" height="32" rx="16" fill="#101010"/>
<rect x="0.444444" y="0.444444" width="31.1111" height="31.1111" rx="15.5556" stroke="white" stroke-opacity="0.05" stroke-width="0.888889"/>
<path fill-rule="evenodd" clip-rule="evenodd" d="M15.988 4.57169L9.24489 15.7628L15.9889 19.7486L22.7338 15.7619L15.9889 4.5708L15.988 4.57169ZM9.14355 17.041L15.8876 21.0259L22.636 17.041L15.8876 26.545L9.14355 17.041Z" fill="white"/>
<path d="M26.0952 6.86047L25.2173 7.7384C27.3137 10.0313 28.4762 13.0256 28.4762 16.1324C28.4762 19.2391 27.3137 22.2335 25.2173 24.5263L26.0952 25.4043C28.4256 22.8753 29.7194 19.5622 29.7194 16.1233C29.7194 12.6843 28.4256 9.37122 26.0952 6.84229V6.86047Z" fill="#5A5564"/>
<path d="M7.61717 6.93717C9.90991 4.84054 12.9043 3.67783 16.0111 3.67783C19.118 3.67783 22.1124 4.84054 24.4051 6.93717L25.283 6.05924C22.754 3.72761 19.44 2.43311 16.0002 2.43311C12.5603 2.43311 9.24637 3.72761 6.71729 6.05924L7.61717 6.93717Z" fill="#5A5564"/>
<path d="M6.7946 24.5389C4.7003 22.2468 3.53905 19.2542 3.53905 16.1494C3.53905 13.0445 4.7003 10.0519 6.7946 7.75977L5.91666 6.88184C3.58503 9.41092 2.29053 12.7248 2.29053 16.1647C2.29053 19.6046 3.58503 22.9185 5.91666 25.4476L6.7946 24.5389Z" fill="#5A5564"/>
<path d="M24.3963 25.3474C22.1036 27.444 19.1092 28.6068 16.0024 28.6068C12.8955 28.6068 9.90114 27.444 7.6084 25.3474L6.73047 26.2253C9.25955 28.557 12.5735 29.8515 16.0133 29.8515C19.4532 29.8515 22.7671 28.557 25.2962 26.2253L24.3963 25.3474Z" fill="#5A5564"/>
</svg>

