<svg width="32" height="32" viewBox="0 0 32 32" fill="none" xmlns="http://www.w3.org/2000/svg">
<rect width="32" height="32" rx="16" fill="#20252F"/>
<rect x="0.444444" y="0.444444" width="31.1111" height="31.1111" rx="15.5556" stroke="white" stroke-opacity="0.05" stroke-width="0.888889"/>
<path d="M5.84229 9.12158H9.29996L12.0169 18.0052L13.8687 13.4205C14.1121 12.82 14.6941 12.4285 15.3397 12.4285H16.6571C17.3053 12.4285 17.8873 12.82 18.128 13.4205L19.9799 18.0052L20.9984 14.6771H24.4561L22.2921 21.7539C22.0883 22.4206 21.472 22.8782 20.7735 22.8782H19.5619C18.9137 22.8782 18.3317 22.4867 18.091 21.8862L15.9984 16.7089L13.9058 21.8862C13.6624 22.4867 13.0804 22.8782 12.4349 22.8782H11.2232C10.5248 22.8782 9.90843 22.4232 9.70473 21.7539L5.84229 9.12158Z" fill="white"/>
<path d="M21.6865 12.4285L22.697 9.12158H26.1574L25.1441 12.4285H21.6865Z" fill="white"/>
</svg>
