<svg fill="none" height="311" viewBox="0 0 613 311" width="613" xmlns="http://www.w3.org/2000/svg" xmlns:xlink="http://www.w3.org/1999/xlink"><clipPath id="a"><path d="m-1 0h615v356h-615z"/></clipPath><g clip-path="url(#a)"><path d="m-1 261.968v42.479c3.6654-1.391 7.3308-2.807 11.0208-4.215 24.8952-9.335 154.1022-58.36 179.0062-67.696 5.412-1.556 10.283-4.668 15.695-5.45 39.696-7.656 77.227-17.815 114.537-32.675 1.894-2.272 3.182-5.268 3.469-9.343-28.987-2.273-59.508 5.771-86.576-12.473-8.905 3.902-18.204 6.759-28.175 9.361-35.793 10.521-174.9388 68.717-208.9688 80.02z" fill="#221c1b"/><g fill="#ec9117" fill-opacity=".15"><path d="m403.916 209.963c-22.189-15.56-46.01-17.116-70.364-25.678-3.895-1.292-7.454-.436-10.873 1.244-11.464 7.532-16.819 15.131-25.396 18.21-30.635 12.579-63.673 17.115-92.324 34.955-3.427 2.132-6.806 4.446-9.421 7.525-2.616 3.079-4.42 7.022-4.207 11.064.066 1.276.353 2.594 1.164 3.573.665.807 1.616 1.309 2.559 1.77 12.226 5.977 26.15 7.278 39.729 7.772 50.569 1.836 101.319-5.022 151.396-11.197 11.111-1.366 22.214-2.807 33.35-3.926 3.419-.346 6.855-.717 10.291-.815 1.164-.033 4.1.642 5.092.271 2.378-.889-2.608-.247 0 0 24.124 3.713 157.588 61.473 179.088 75.303v-54.837c-11.783-3.663-127.953-30.995-140.261-34.115-24.354-6.224-47.093-16.342-69.823-31.128z"/><path d="m355.2 143.04c-10.824-3.894-21.107-7.005-32.481-10.117-13.464-3.721-25.452-8.875-37.843-15.453 1.419 3.145-4.969 9.245-9.249 10.785-15.695 7.006-35.728 7.006-45.469 28.789-2.165 4.668.541 11.674 3.788 14.004 27.61 20.235 58.999 11.673 88.773 14.003-.008.165-.032.313-.049.469 3.42-1.679 6.978-2.535 10.873-1.243 24.354 8.562 48.175 10.118 70.365 25.677 22.73 14.786 45.469 24.904 69.823 31.128 12.308 3.12 128.477 30.452 140.261 34.115v-43.591c-4.584-1.095-113.398-48.786-118.064-49.659-48.716-8.561-93.644-21.009-140.737-38.907z"/><path d="m364.941 19.3137c-.795-.2552-1.582-.2799-2.361-.1317.902 1.3419 1.902 2.6179 3.444 3.2436 4.871 2.338 8.659 15.5595 6.494 16.3416-35.186 21.7915-71.446 32.6831-109.88 41.245-6.494 1.5559-10.283 7.7797-4.871 14.7856 7.577 11.6742 20.566 10.1182 27.069 22.5652.016.033.032.074.049.115 12.39 6.578 24.37 11.724 37.843 15.453 11.365 3.112 21.648 6.224 32.48 10.118 47.093 17.897 92.02 30.345 140.737 38.907 4.674.872 113.479 48.563 118.063 49.658v-150.4575c-3.017-.708-244.188-59.513-249.058-61.8428z"/></g><path d="m80.7292 356c28.1018-12.094 59.8678-14.391 65.5508-15.543 11.398-2.223 21.935-.461 33.071-1.26 7.15-2.313 35.571-9.863 42.705-12.909 4.436-1.877 58.966-27.274 63.214-29.686 2.485-1.408-198.6204 42.735-253.1914 59.398h48.6588z" fill="#221c1b"/><path d="m32.0788 356c54.571-16.671 246.5082-57.834 244.0242-56.426-4.24 2.412-139.835 35.622-146.985 37.935 20.057-1.44 84.837-11.55 105.378-17.057 26.519-7.006 50.34-14.786 76.858-17.898 17.319-2.338 33.563-7.78 50.881-11.674 7.036-1.556 73.612-26.459 73.071-35.795-.304-1.753-10.496-.304-11.538-.214-9.873.856-19.713 2.124-29.553 3.334-13.784 1.688-27.56 3.409-41.352 4.989-15.629 1.795-31.275 3.433-46.953 4.75-15.416 1.293-30.873 2.289-46.339 2.61-13.169.272-26.428.148-39.515-1.424-8.824-1.054-19.065-2.462-26.675-7.475-4.887-3.219-.599-12.629 2.411-16.045 3.518-4.001 8.11-6.71 12.718-9.196 29.848-16.152 58.458-20.236 88.773-32.683 6.396-2.297 13.588-7.401 25.437-18.68-17.319 0-38.729 8.48-52.776 12.818-23.698 7.327-40.303 24.393-65.222 29.201-5.412.782-10.283 3.894-15.695 5.45-24.895 9.336-154.1028 58.36-179.0062 67.696-3.69 1.416-7.3554 2.824-11.0208 4.215v51.56h33.0788z" fill="#171312"/><path d="m126.231 127.473c-7.626 3.227-119.7362 53.668-127.231 57.076v77.41c34.03-11.303 314.814-73.006 323.72-76.908-.935-.626-3.289-.445-4.355-.568-3.64-.42-7.281-.815-10.914-1.227-21.582-2.42-43.255-4.519-64.509-9.146-4.24-.922-8.823-2.182-11.357-5.713-2.288-3.186-2.313-7.55-1.206-11.32 2.78-9.509 11.603-16.004 20.664-19.923 9.07-3.919 18.893-6.01 27.626-10.628 3.124-1.655 6.462-4.306 6.249-7.846-.091-1.49-.829-2.873-1.706-4.083-6.511-8.982-20.68-9.945-25.633-20.252-2.313-4.8078 1.287-10.0355 3.96-14.0036-2.779.4117-121.228 40.9076-135.3 47.1316z" fill="#171312"/><path d="m236.661 77.6741c-44.813 17.0742-193.3974 66.1319-237.661 73.8619v33.013c7.503-3.408 119.605-53.849 127.231-57.076 14.071-6.224 133.742-46.827 136.407-47.4691 1.55-.3458 3.1-.6998 4.65-1.0538 1.722-.9467 3.427-1.9182 5.1-2.8402-1.673.922-3.37 1.8935-5.1 2.8402 15.391-3.5235 30.446-7.4916 45.223-12.4394-5.945 1.3419-11.833 2.9802-17.934 4.9313-20.024 6.2238-38.974-.7821-57.916 6.2238z" fill="#221c1b"/><path d="m366.024 22.4256c-1.542-.6339-2.542-1.9017-3.444-3.2436-3.944.7245-347.2702 74.5044-363.58 78.9912v53.3628c44.2636-7.73 192.848-56.7876 237.661-73.8618 18.942-7.0059 37.892 0 57.916-6.2238 6.101-1.9511 11.989-3.5894 17.934-4.9313 20.467-6.8577 40.409-15.6089 60.015-27.7519 2.165-.7821-1.623-14.0035-6.494-16.3416z" fill="#171312"/><path d="m614 356v-44.341c-31.955-7.22-154.963-53.207-179.088-56.919 2.378-.89-2.607-.247 0 0 .238.098.369.214.394.354.541 9.335-66.035 34.239-73.07 35.795-17.319 3.894-33.563 9.335-50.881 11.673-26.519 3.112-50.34 10.892-76.859 17.898-31.939 8.562-56.277 13.773-88.207 19.997-5.675 1.152-37.45 3.449-65.5512 15.543h533.2702z" fill="#ec9117" fill-opacity=".15"/></g></svg>