<svg width="613" height="307" viewBox="0 0 613 307" fill="none" xmlns="http://www.w3.org/2000/svg">
<g clip-path="url(#clip0_38_110)">
<path d="M637.195 73.485C569.488 25.6634 517.297 48.9096 413.974 94.8997C400.18 101.044 377.522 109.816 361.749 116.61M361.749 116.61C355.782 113.302 348.356 109.893 342.005 107.382L340.259 106.698C282.895 84.0128 253.579 98.3261 222.24 110.998C188.484 124.644 156.581 137.523 98.8935 106.449L94.7581 104.234C41.2933 75.4049 29.6542 69.1428 -18.1084 89.9669M361.749 116.61C378.408 126.358 394.152 137.611 408.773 150.194C428.18 167.267 449.772 181.652 473.018 192.935C475.883 194.235 478.896 195.505 481.998 196.775C482.825 197.13 483.74 197.454 484.597 197.809C486.901 198.725 489.205 199.67 491.597 200.585C492.661 200.999 493.813 201.383 494.906 201.797C497.151 202.624 499.395 203.48 501.729 204.307C502.969 204.75 504.24 205.164 505.48 205.607C507.755 206.404 509.999 207.202 512.333 207.97C513.573 208.383 514.844 208.797 516.114 209.211C518.477 209.979 520.84 210.776 523.262 211.544C524.591 211.958 525.95 212.371 527.309 212.814C529.672 213.553 532.035 214.291 534.427 215.029C535.845 215.443 537.263 215.857 538.651 216.3C541.014 217.009 543.377 217.717 545.74 218.397C547.188 218.81 548.635 219.224 550.082 219.637C552.445 220.317 554.779 220.996 557.142 221.646C558.619 222.059 560.066 222.443 561.543 222.857C563.847 223.507 566.151 224.127 568.425 224.747C569.991 225.161 571.527 225.574 573.063 225.988C575.248 226.579 577.434 227.169 579.591 227.731C581.097 228.115 582.574 228.499 584.08 228.883C586.266 229.444 588.481 230.005 590.638 230.566C592.085 230.921 593.473 231.275 594.891 231.63C597.018 232.161 599.145 232.693 601.212 233.225C602.689 233.579 604.107 233.934 605.554 234.288C607.504 234.761 609.424 235.233 611.314 235.676C612.909 236.06 614.445 236.415 615.981 236.799C617.635 237.183 619.289 237.596 620.884 237.951C622.509 238.335 624.075 238.689 625.64 239.073C627.087 239.398 628.535 239.753 629.894 240.048C631.429 240.402 632.906 240.727 634.383 241.082C635.269 241.288 636.244 241.495 637.13 241.702M637.13 309.373L635.772 308.989C635.181 308.812 634.59 308.635 633.999 308.457C632.759 308.103 631.518 307.719 630.307 307.335C629.687 307.128 629.037 306.951 628.417 306.744C627.265 306.39 626.113 306.035 624.961 305.651C624.281 305.444 623.602 305.208 622.893 305.001C621.8 304.647 620.707 304.293 619.644 303.938C618.935 303.702 618.196 303.466 617.458 303.2C616.424 302.845 615.42 302.491 614.386 302.136C613.559 301.841 612.732 301.575 611.905 301.28C610.989 300.955 610.044 300.63 609.099 300.275C608.183 299.951 607.268 299.626 606.322 299.271C605.407 298.946 604.491 298.592 603.546 298.237L600.71 297.174C599.765 296.82 598.79 296.436 597.815 296.081C596.811 295.697 595.807 295.313 594.773 294.9C593.857 294.545 592.912 294.161 591.967 293.807C590.845 293.364 589.722 292.921 588.57 292.478C587.655 292.123 586.68 291.739 585.735 291.355C584.523 290.883 583.312 290.38 582.042 289.878C581.127 289.524 580.181 289.11 579.236 288.756C577.878 288.195 576.519 287.663 575.101 287.072C574.097 286.659 573.063 286.245 572.059 285.802C570.611 285.211 569.193 284.62 567.687 284L565.294 282.996C555.754 279.038 545.002 274.519 532.419 269.231L523.705 265.569C519.629 263.856 515.908 262.32 512.363 260.843C511.299 260.4 510.295 259.986 509.261 259.573C506.721 258.539 504.269 257.564 501.965 256.648C500.932 256.235 499.868 255.821 498.864 255.437C496.412 254.492 494.079 253.635 491.834 252.838C491.214 252.631 490.564 252.365 489.973 252.159C487.226 251.213 484.597 250.386 482.057 249.648C481.407 249.471 480.757 249.293 480.107 249.116C478.217 248.584 476.356 248.112 474.525 247.698C473.727 247.521 472.9 247.344 472.102 247.167C470.36 246.812 468.587 246.487 466.815 246.221C466.136 246.103 465.427 245.985 464.747 245.896C462.325 245.572 459.903 245.335 457.393 245.158C457.097 245.128 456.743 245.129 456.447 245.129C454.202 245.01 451.899 244.922 449.506 244.922C449.211 244.922 448.915 244.892 448.62 244.892C447.379 244.892 446.109 244.922 444.809 244.951C444.425 244.951 444.071 244.951 443.687 244.981C441.56 245.04 439.315 245.129 437.011 245.247C436.214 245.276 435.387 245.335 434.589 245.394C432.906 245.483 431.192 245.601 429.391 245.749C428.475 245.808 427.559 245.867 426.585 245.956C424.192 246.133 421.681 246.34 419.052 246.576C417.664 246.694 416.158 246.842 414.681 246.96C413.086 247.108 411.491 247.255 409.807 247.403C407.976 247.58 406.056 247.757 404.106 247.935C401.33 248.2 398.465 248.496 395.452 248.762L393.68 248.939C361.838 252.011 335.372 240.579 309.79 229.533C280.695 216.92 250.449 203.835 213.409 213.848C185.023 222.296 157.789 234.318 132.416 249.619C129.964 250.977 127.483 252.336 125.002 253.695C123.496 254.522 121.989 255.349 120.453 256.147C119.508 256.649 118.563 257.18 117.618 257.683C116.17 258.45 114.723 259.218 113.276 259.986C112.183 260.577 111.09 261.138 109.997 261.729C108.697 262.409 107.398 263.058 106.098 263.738C104.798 264.388 103.528 265.067 102.228 265.717C100.899 266.396 99.5405 267.046 98.1818 267.696C96.8821 268.346 95.5825 268.966 94.2828 269.616C92.8946 270.295 91.4768 270.945 90.0589 271.595C88.7298 272.215 87.4006 272.835 86.0714 273.456C84.624 274.106 83.1471 274.726 81.6702 275.376C80.3115 275.966 78.9527 276.587 77.5645 277.148C76.058 277.798 74.4926 278.389 72.9271 279.038C71.5388 279.6 70.1505 280.19 68.7032 280.722C67.1081 281.342 65.454 281.933 63.8294 282.524C62.3821 283.056 60.9348 283.617 59.4579 284.119C57.8038 284.71 56.1201 285.241 54.4365 285.832C52.9005 286.364 51.3645 286.866 49.7695 287.398C48.0563 287.929 46.3136 288.461 44.5708 288.963C42.9463 289.465 41.3217 289.938 39.6675 290.41C37.8657 290.913 35.9753 291.415 34.1144 291.887C32.4307 292.33 30.7471 292.803 29.0044 293.217C27.1139 293.689 25.1349 294.132 23.215 294.575C21.4132 294.989 19.6409 295.402 17.78 295.816C15.801 296.229 13.7629 296.613 11.7248 297.027C9.80479 297.411 7.91437 297.795 5.96489 298.149C3.86774 298.533 1.71145 298.858 -0.415276 299.213C-2.42381 299.538 -4.43242 299.892 -6.50009 300.188C-8.68587 300.512 -10.9308 300.808 -13.1756 301.074C-14.8002 301.28 -16.4543 301.517 -18.1084 301.694" stroke="#221C1B" stroke-linecap="round"/>
</g>
<defs>
<clipPath id="clip0_38_110">
<rect width="615" height="356" fill="white" transform="translate(-1)"/>
</clipPath>
</defs>
</svg>