<svg width="18" height="19" viewBox="0 0 18 19" fill="none" xmlns="http://www.w3.org/2000/svg">
<path d="M9 0.5C4.02897 0.5 0 4.52897 0 9.5C0 14.471 4.02897 18.5 9 18.5C13.971 18.5 18 14.471 18 9.5C18 4.52897 13.9699 0.5 9 0.5ZM15.0106 11.6505C14.9607 11.7004 14.9652 11.6959 14.9142 11.7469L10.8807 9.48753L2.98488 15.6126L2.88512 15.5128L9.0102 7.61702L6.75085 3.58351C6.80073 3.53363 6.7962 3.53817 6.84721 3.48715L10.8807 5.7465L15.014 3.38739L15.1103 3.48375L12.7512 7.61702L15.0106 11.6505Z" fill="#1B1919"/>
</svg>
