<svg width="21" height="20" viewBox="0 0 21 20" fill="none" xmlns="http://www.w3.org/2000/svg">
<ellipse cx="10" cy="10" rx="9" ry="10" fill="white"/>
<path d="M10.0802 0C4.51255 0 0 4.47663 0 10C0 15.5234 4.51255 20 10.0802 20C15.6479 20 20.1605 15.5234 20.1605 10C20.1605 4.47663 15.6466 0 10.0802 0ZM16.8122 12.3895C16.7564 12.4449 16.7614 12.4399 16.7043 12.4965L12.1867 9.98614L3.34315 16.7918L3.23141 16.6809L10.0917 7.9078L7.56112 3.42612C7.61699 3.3707 7.61191 3.37574 7.66905 3.31906L12.1867 5.82945L16.816 3.20821L16.924 3.31528L14.2817 7.9078L16.8122 12.3895Z" fill="black"/>
</svg>
