<svg width="107" height="20" viewBox="0 0 107 20" fill="none" xmlns="http://www.w3.org/2000/svg">
<path d="M10.0802 0C4.51255 0 0 4.47663 0 10C0 15.5234 4.51255 20 10.0802 20C15.6479 20 20.1605 15.5234 20.1605 10C20.1605 4.47663 15.6466 0 10.0802 0ZM16.8122 12.3895C16.7564 12.4449 16.7614 12.4399 16.7043 12.4965L12.1867 9.98615L3.34315 16.7918L3.23141 16.6809L10.0917 7.9078L7.56112 3.42612C7.61699 3.3707 7.61191 3.37574 7.66905 3.31906L12.1867 5.82945L16.816 3.20821L16.924 3.31528L14.2817 7.9078L16.8122 12.3895Z" fill="#FDFDFC"/>
<path d="M38.6732 4.80787L28.3594 15.4553L28.4457 15.6279H39.7144V13.3606H34.4438L41.153 6.43024V15.6279H44.0733V6.96305C44.0733 4.16043 40.6311 2.78746 38.6745 4.80787H38.6732Z" fill="#FDFDFC"/>
<path d="M103.916 15.6253H94.9582V13.0809H104.576L96.4856 9.45958L96.3726 9.38904C95.1766 8.65091 94.5747 7.62182 94.9671 6.15312C95.348 4.72599 96.5313 4.0332 97.9115 4.0332H106.648V6.58138H97.6487L105.106 10.0403C106.532 10.7293 107.293 11.8528 106.9 13.3807C106.532 14.8242 105.374 15.6216 103.922 15.6216L103.919 15.6253H103.916Z" fill="#FDFDFC"/>
<path d="M78.9631 4.03711H76.0352V15.6255H78.9631V4.03711Z" fill="#FDFDFC"/>
<path d="M89.8547 4.0332H85.6558L80.4106 8.25414C79.9675 8.64713 79.6957 9.20892 79.6665 9.80093C79.6373 10.4131 79.8672 11.0165 80.2976 11.4586L85.6304 15.6304H89.9004L82.8992 9.90422L89.8547 4.0332Z" fill="#FDFDFC"/>
<path d="M93.6701 4.03711H90.7422V15.6292H93.6701V4.03711Z" fill="#FDFDFC"/>
<path d="M48.5686 15.6292H45.6406V8.34622C45.6406 5.96682 47.5858 4.03711 49.9843 4.03711H54.1782V6.58151H50.0478C49.2314 6.58151 48.5686 7.23902 48.5686 8.04895V15.6292Z" fill="#FDFDFC"/>
<path d="M57.5139 15.6292H54.5859V8.34622C54.5859 5.96682 56.5311 4.03711 58.9296 4.03711H63.1235V6.58151H58.9931C58.1767 6.58151 57.5139 7.23902 57.5139 8.04895V15.6292Z" fill="#FDFDFC"/>
<path d="M69.0131 4.80787L58.6992 15.4553L58.7856 15.6279H70.0542V13.3606H64.7837L71.4928 6.43024V15.6279H74.4131V6.96305C74.4131 4.16043 70.971 2.78746 69.0143 4.80787H69.0131Z" fill="#FDFDFC"/>
</svg>
