<svg width="32" height="32" viewBox="0 0 32 32" fill="none" xmlns="http://www.w3.org/2000/svg">
<rect width="32" height="32" rx="8" fill="#2CCCD9"/>
<path fill-rule="evenodd" clip-rule="evenodd" d="M15.795 26.5924C12.6811 26.59 10.1728 25.8428 8.42019 24.5007C6.64659 23.1425 5.70569 21.2151 5.70569 19.0341C5.70569 16.9327 6.64452 15.4173 7.70679 14.3931C8.53929 13.5904 9.45796 13.0763 10.0976 12.7806C9.95299 12.3366 9.77249 11.7554 9.61102 11.1552C9.39499 10.3519 9.18302 9.40946 9.18302 8.71886C9.18302 7.90142 9.36126 7.08049 9.84179 6.44259C10.3495 5.76866 11.1138 5.40762 12.0333 5.40762C12.7519 5.40762 13.362 5.67416 13.8397 6.13402C14.2962 6.57356 14.6001 7.15732 14.8099 7.76582C15.1786 8.83506 15.3221 10.1784 15.3624 11.519H16.2431C16.2834 10.1784 16.4269 8.83506 16.7956 7.76582C17.0054 7.15732 17.3093 6.57356 17.7659 6.13402C18.2435 5.67416 18.8536 5.40762 19.5722 5.40762C20.4917 5.40762 21.256 5.76866 21.7637 6.44259C22.2443 7.08049 22.4225 7.90142 22.4225 8.71886C22.4225 9.40946 22.2105 10.3519 21.9945 11.1552C21.833 11.7554 21.6525 12.3366 21.5079 12.7806C22.1476 13.0763 23.0662 13.5904 23.8987 14.3931C24.961 15.4173 25.8998 16.9327 25.8998 19.0341C25.8998 21.2151 24.9589 23.1425 23.1853 24.5007C21.4328 25.8428 18.9245 26.59 15.8106 26.5924H15.795Z" fill="#633001"/>
<path d="M12.0332 6.18503C10.6865 6.18503 10.0665 7.19999 10.0665 8.60369C10.0665 9.71939 10.7869 11.9539 11.0824 12.8238C11.1489 13.0194 11.0444 13.2338 10.8539 13.3096C9.77457 13.7396 6.58923 15.3138 6.58923 18.919C6.58923 22.7167 9.82623 25.5801 15.7956 25.5846C15.7979 25.5846 15.8003 25.5846 15.8027 25.5846C15.8051 25.5846 15.8074 25.5846 15.8098 25.5846C21.7791 25.5801 25.0162 22.7167 25.0162 18.919C25.0162 15.3138 21.8308 13.7396 20.7515 13.3096C20.561 13.2338 20.4565 13.0194 20.523 12.8238C20.8185 11.9539 21.5388 9.71939 21.5388 8.60369C21.5388 7.19999 20.9189 6.18503 19.5722 6.18503C17.6336 6.18503 17.1503 8.95913 17.1159 11.9364C17.1136 12.1352 16.9545 12.2965 16.7577 12.2965H14.8477C14.6509 12.2965 14.4918 12.1352 14.4895 11.9364C14.4551 8.95913 13.9718 6.18503 12.0332 6.18503Z" fill="#D1884F"/>
<path d="M15.8098 24.3681C11.4239 24.3681 6.5968 21.9963 6.58923 18.9261C6.58923 18.9309 6.58923 18.9357 6.58923 18.9405C6.58923 22.7413 9.8314 25.6062 15.8098 25.6062C21.7882 25.6062 25.0304 22.7413 25.0304 18.9405C25.0304 18.9357 25.0304 18.9309 25.0304 18.9261C25.0228 21.9963 20.1958 24.3681 15.8098 24.3681Z" fill="#FEDC90"/>
<path d="M13.3729 17.9831C13.3729 19.0197 12.8879 19.5596 12.2898 19.5596C11.6916 19.5596 11.2067 19.0197 11.2067 17.9831C11.2067 16.9466 11.6916 16.4067 12.2898 16.4067C12.8879 16.4067 13.3729 16.9466 13.3729 17.9831Z" fill="#633001"/>
<path d="M20.413 17.9831C20.413 19.0197 19.9281 19.5596 19.3299 19.5596C18.7318 19.5596 18.2468 19.0197 18.2468 17.9831C18.2468 16.9466 18.7318 16.4067 19.3299 16.4067C19.9281 16.4067 20.413 16.9466 20.413 17.9831Z" fill="#633001"/>
</svg>
