<svg width="12" height="14" viewBox="0 0 12 14" fill="none" xmlns="http://www.w3.org/2000/svg">
<g clip-path="url(#clip0_18_3826)">
<path d="M4.70556 3.1444C4.55583 3.12301 4.5487 3.11588 4.62 3.10875C4.75547 3.08736 5.0692 3.11588 5.29023 3.16579C5.8036 3.287 6.26706 3.60073 6.75904 4.14975L6.88738 4.29948L7.07276 4.27096C7.86421 4.14262 8.67704 4.24244 9.3544 4.55616C9.53979 4.64173 9.83212 4.81285 9.86777 4.85563C9.88203 4.86989 9.90342 4.96258 9.91768 5.05527C9.96759 5.39039 9.9462 5.63994 9.83925 5.83246C9.78221 5.93941 9.78221 5.96793 9.81786 6.06062C9.84638 6.13192 9.93194 6.18183 10.0104 6.18183C10.1815 6.18183 10.3598 5.91089 10.4453 5.53299L10.481 5.38326L10.5451 5.45456C10.9088 5.86098 11.194 6.42426 11.2368 6.82354L11.251 6.93049L11.1868 6.8378C11.0799 6.67381 10.9801 6.56686 10.8446 6.47417C10.6022 6.31017 10.3455 6.26026 9.66813 6.22461C9.05494 6.18896 8.70556 6.13905 8.36332 6.02497C7.77865 5.83246 7.47918 5.5829 6.78756 4.66312C6.48096 4.2567 6.28845 4.03566 6.09594 3.85028C5.67526 3.44386 5.25458 3.22996 4.70556 3.1444Z" fill="#FF007A"/>
<path d="M10.0177 4.04983C10.0319 3.77889 10.0676 3.60063 10.146 3.43664C10.1745 3.37247 10.2031 3.31543 10.2102 3.31543C10.2173 3.31543 10.2031 3.36534 10.1817 3.42238C10.1246 3.57924 10.1175 3.80028 10.1531 4.04983C10.2031 4.37069 10.2244 4.41347 10.5667 4.76285C10.7236 4.92684 10.9089 5.13361 10.9802 5.21917L11.1014 5.37604L10.9802 5.26195C10.8305 5.11935 10.4883 4.84841 10.4098 4.81276C10.3599 4.78424 10.3528 4.78424 10.3171 4.81989C10.2886 4.84841 10.2815 4.89119 10.2815 5.09796C10.2744 5.41882 10.2316 5.61846 10.1246 5.82523C10.0676 5.93219 10.0605 5.9108 10.1104 5.78958C10.146 5.69689 10.1531 5.65411 10.1531 5.34752C10.1531 4.72719 10.0818 4.57746 9.6469 4.32791C9.53995 4.26374 9.35457 4.17104 9.24762 4.12113C9.13353 4.07122 9.04797 4.02844 9.0551 4.02844C9.06936 4.01418 9.49004 4.13539 9.65403 4.2067C9.90359 4.30652 9.94637 4.31365 9.97489 4.30652C9.99628 4.28513 10.0105 4.22809 10.0177 4.04983Z" fill="#FF007A"/>
<path d="M4.9981 5.1124C4.69864 4.69885 4.50612 4.05714 4.5489 3.57942L4.56316 3.42969L4.63446 3.44395C4.76281 3.46534 4.98384 3.5509 5.09079 3.61507C5.376 3.78619 5.50434 4.02149 5.62555 4.60616C5.6612 4.77728 5.71111 4.97692 5.7325 5.0411C5.76815 5.14805 5.90363 5.3976 6.01771 5.55446C6.09614 5.66855 6.04623 5.72559 5.86798 5.71133C5.59703 5.68281 5.23339 5.43325 4.9981 5.1124Z" fill="#FF007A"/>
<path d="M9.65404 8.21433C8.24227 7.64392 7.74316 7.15194 7.74316 6.31771C7.74316 6.1965 7.75029 6.09668 7.75029 6.09668C7.75742 6.09668 7.80734 6.13946 7.87151 6.18937C8.15671 6.41754 8.47757 6.51736 9.36883 6.6457C9.88933 6.72413 10.1888 6.78117 10.4597 6.87386C11.3225 7.15907 11.8572 7.74374 11.9856 8.53518C12.0212 8.76335 11.9998 9.19828 11.9428 9.42645C11.8929 9.6047 11.7503 9.93269 11.7146 9.93982C11.7075 9.93982 11.6933 9.90417 11.6933 9.84713C11.679 9.54766 11.5293 9.26246 11.2797 9.04142C10.9802 8.78474 10.5952 8.59222 9.65404 8.21433Z" fill="#FF007A"/>
<path d="M8.65596 8.44939C8.6417 8.34243 8.60605 8.20696 8.58466 8.14992L8.54901 8.04297L8.61318 8.1214C8.70587 8.22835 8.77717 8.35669 8.84134 8.53495C8.89125 8.67042 8.89125 8.7132 8.89125 8.93423C8.89125 9.14814 8.88412 9.19805 8.84134 9.31926C8.77004 9.51177 8.68448 9.64725 8.54188 9.79698C8.28519 10.0608 7.95008 10.2034 7.47236 10.2676C7.3868 10.2747 7.14437 10.2961 6.93047 10.3103C6.39571 10.3389 6.0392 10.3959 5.71835 10.51C5.67557 10.5243 5.63279 10.5385 5.62566 10.5314C5.6114 10.5171 5.83243 10.3888 6.01068 10.3032C6.26024 10.182 6.51692 10.1178 7.0802 10.018C7.35828 9.97523 7.64348 9.91819 7.71478 9.88967C8.42066 9.66864 8.77004 9.11962 8.65596 8.44939Z" fill="#FF007A"/>
<path d="M9.30477 9.59748C9.11939 9.19106 9.07661 8.80603 9.17643 8.44239C9.19069 8.40674 9.20495 8.37109 9.21921 8.37109C9.23347 8.37109 9.27625 8.39248 9.31903 8.421C9.40459 8.47805 9.58285 8.57787 10.0392 8.82742C10.6167 9.14115 10.9447 9.38357 11.1729 9.66165C11.3725 9.90407 11.4937 10.1821 11.5508 10.5244C11.5864 10.7169 11.565 11.1804 11.5151 11.3729C11.3582 11.9789 11.0017 12.4638 10.4812 12.7419C10.4028 12.7846 10.3386 12.8132 10.3315 12.8132C10.3244 12.8132 10.3529 12.7419 10.3957 12.6563C10.5668 12.2927 10.5882 11.9433 10.4599 11.5511C10.3814 11.3087 10.2174 11.0164 9.88944 10.5244C9.49729 9.95398 9.40459 9.80425 9.30477 9.59748Z" fill="#FF007A"/>
<path d="M3.99251 11.7795C4.52014 11.3374 5.16898 11.0237 5.76791 10.9239C6.02459 10.8811 6.4524 10.8953 6.68769 10.9595C7.06559 11.0593 7.40784 11.2732 7.58609 11.5371C7.75721 11.7937 7.83564 12.0148 7.91407 12.5068C7.94259 12.6993 7.97825 12.8989 7.98538 12.9417C8.04242 13.1984 8.1565 13.398 8.2991 13.505C8.52014 13.669 8.90516 13.6761 9.28306 13.5335C9.34723 13.5121 9.40427 13.4907 9.40427 13.4978C9.41853 13.5121 9.22602 13.6404 9.09767 13.7046C8.91942 13.7973 8.77682 13.8258 8.58431 13.8258C8.24206 13.8258 7.94972 13.6476 7.71443 13.2911C7.66452 13.2198 7.5647 13.013 7.47914 12.8205C7.22958 12.2429 7.10124 12.0718 6.80891 11.8793C6.55222 11.7153 6.22424 11.6797 5.97468 11.8009C5.6467 11.9577 5.56113 12.3784 5.7893 12.6351C5.88199 12.742 6.05311 12.8276 6.19571 12.849C6.45953 12.8847 6.68769 12.6779 6.68769 12.4141C6.68769 12.2429 6.62352 12.1431 6.4524 12.0647C6.22423 11.9649 5.97468 12.0789 5.98181 12.3C5.98181 12.3927 6.02459 12.4497 6.11728 12.4925C6.17432 12.521 6.17432 12.521 6.13154 12.5139C5.92477 12.4711 5.87486 12.2144 6.03885 12.0504C6.23849 11.8508 6.65917 11.9363 6.80178 12.2144C6.85882 12.3285 6.86595 12.5567 6.81604 12.6993C6.69482 13.013 6.35258 13.177 6.0032 13.0843C5.76791 13.0201 5.66809 12.956 5.38288 12.6636C4.88377 12.1503 4.69126 12.0504 3.97825 11.9435L3.84277 11.9221L3.99251 11.7795Z" fill="#FF007A"/>
<path fill-rule="evenodd" clip-rule="evenodd" d="M0.242741 0.306595C1.90406 2.32442 4.46378 5.46168 4.59212 5.6328C4.69907 5.7754 4.65629 5.91087 4.47804 6.0107C4.37821 6.06774 4.17144 6.12478 4.07162 6.12478C3.95754 6.12478 3.82206 6.06774 3.72937 5.97504C3.6652 5.91087 3.38713 5.50446 2.75968 4.52763C2.28196 3.77897 1.87554 3.15865 1.86841 3.15152C1.83989 3.13725 1.83989 3.13726 2.70976 4.69162C3.25878 5.66845 3.43704 6.01783 3.43704 6.06061C3.43704 6.1533 3.40852 6.20321 3.29443 6.33155C3.10192 6.54545 3.01636 6.78788 2.95219 7.29412C2.88089 7.8574 2.68837 8.25668 2.13935 8.93405C1.8185 9.33333 1.76859 9.40463 1.69016 9.56863C1.59033 9.76827 1.56181 9.88235 1.54755 10.139C1.53329 10.41 1.56181 10.5811 1.64025 10.8378C1.71155 11.066 1.78998 11.2157 1.98249 11.508C2.14648 11.7647 2.24631 11.9572 2.24631 12.0285C2.24631 12.0856 2.26057 12.0856 2.51725 12.0285C3.13044 11.8859 3.63668 11.6435 3.91476 11.344C4.08588 11.1586 4.12866 11.0588 4.12866 10.8021C4.12866 10.6381 4.12153 10.6025 4.07875 10.5027C4.00745 10.3458 3.87197 10.2175 3.57964 10.0178C3.19461 9.75401 3.03062 9.54011 2.98784 9.2549C2.95219 9.01248 2.99497 8.84848 3.20887 8.39929C3.42991 7.93583 3.48695 7.74332 3.5226 7.27273C3.54399 6.97326 3.57964 6.85205 3.6652 6.75936C3.75789 6.65954 3.83632 6.62389 4.05736 6.59537C4.42099 6.54545 4.65629 6.45276 4.84167 6.27451C5.00566 6.12478 5.07697 5.97504 5.0841 5.75401L5.09123 5.59002L4.99853 5.4902C4.66342 5.10517 0.0217075 0 0.000317151 0C-0.00681297 0 0.107269 0.135472 0.242741 0.306595ZM2.43169 10.4456C2.51012 10.3102 2.46734 10.139 2.339 10.0535C2.21779 9.97504 2.0324 10.0107 2.0324 10.1176C2.0324 10.1462 2.04666 10.1747 2.08944 10.1889C2.15361 10.2246 2.16074 10.2602 2.11083 10.3387C2.06092 10.4171 2.06092 10.4884 2.12509 10.5383C2.22492 10.6168 2.36039 10.574 2.43169 10.4456Z" fill="#FF007A"/>
<path fill-rule="evenodd" clip-rule="evenodd" d="M5.31948 6.69516C5.14836 6.74507 4.98437 6.93046 4.93446 7.11584C4.90594 7.22992 4.9202 7.4367 4.97011 7.50087C5.04854 7.60069 5.11984 7.62921 5.31948 7.62921C5.71164 7.62921 6.04676 7.45809 6.08241 7.25131C6.11806 7.08019 5.96833 6.8449 5.76155 6.73794C5.6546 6.6809 5.43357 6.65951 5.31948 6.69516ZM5.77581 7.05167C5.83285 6.96611 5.81146 6.87342 5.70451 6.80925C5.512 6.68803 5.21966 6.78786 5.21966 6.97324C5.21966 7.06593 5.3694 7.16575 5.512 7.16575C5.60469 7.16575 5.73303 7.10871 5.77581 7.05167Z" fill="#FF007A"/>
</g>
<defs>
<clipPath id="clip0_18_3826">
<rect width="12" height="13.8182" fill="white"/>
</clipPath>
</defs>
</svg>
