<svg width="32" height="32" viewBox="0 0 32 32" fill="none" xmlns="http://www.w3.org/2000/svg">
<rect width="32" height="32" rx="16" fill="#F0B90B"/>
<rect x="0.444444" y="0.444444" width="31.1111" height="31.1111" rx="15.5556" stroke="white" stroke-opacity="0.05" stroke-width="0.888889"/>
<path d="M8.79293 16.0001L8.80436 20.2309L12.3998 22.3452V24.8229L6.7015 21.4812V14.7635L8.79293 16.0001ZM8.79293 11.7692V14.2344L6.69922 12.9967V10.5304L8.79293 9.29265L10.8969 10.5304L8.79408 11.7692H8.79293ZM13.9015 10.5304L15.9952 9.29265L18.0981 10.5304L15.9952 11.7692L13.9015 10.5304Z" fill="white"/>
<path d="M10.3064 19.3544V16.8767L12.4001 18.1155V20.5807L10.3064 19.3544ZM13.9018 23.2332L15.9955 24.4721L18.0984 23.2332V25.6984L15.9955 26.9372L13.9018 25.6984V23.2332ZM21.1018 10.5304L23.1955 9.29265L25.2984 10.5304V12.9967L23.1955 14.2344V11.7692L21.1018 10.5304ZM23.1955 20.2309L23.2069 16.0001L25.2995 14.7612V21.4801L19.6012 24.8218V22.3452L23.1955 20.2309Z" fill="white"/>
<path d="M21.6936 19.3544L19.5999 20.5806V18.1155L21.6936 16.8766V19.3544Z" fill="white"/>
<path d="M21.6938 12.6456L21.7052 15.1233L18.0995 17.2376V21.4799L16.0069 22.7062L13.9132 21.4799V17.2387L10.3075 15.1233V12.6456L12.4104 11.4079L15.9932 13.5336L19.5989 11.4079L21.7018 12.6456H21.6938ZM10.3064 8.41703L15.9944 5.06274L21.6938 8.41703L19.6001 9.65474L15.9955 7.52903L12.4001 9.65474L10.3064 8.41703Z" fill="white"/>
</svg>

